<svg width="111" height="21" viewBox="0 0 111 21" fill="none" xmlns="http://www.w3.org/2000/svg">
<path d="M17.1362 0.142856H4.27902C2.14955 0.142856 0.421875 1.87053 0.421875 4V16.8571C0.421875 18.9866 2.14955 20.7143 4.27902 20.7143H11.404V12.7455H8.72545V9.63839H11.404V7.34821C11.404 4.69643 13.0379 3.25 15.4085 3.25C16.5335 3.25 17.5112 3.33036 17.7924 3.37053V6.14286L16.1585 6.15625C14.8594 6.15625 14.6183 6.75893 14.6183 7.65625V9.63839H17.6853L17.2835 12.7455H14.6183V20.7143H17.1362C19.2656 20.7143 20.9933 18.9866 20.9933 16.8571V4C20.9933 1.87053 19.2656 0.142856 17.1362 0.142856ZM58.7143 10.4286C58.7143 12.317 57.1741 13.8571 55.2857 13.8571C53.3973 13.8571 51.8571 12.317 51.8571 10.4286C51.8571 8.54018 53.3973 7 55.2857 7C57.1741 7 58.7143 8.54018 58.7143 10.4286ZM60.5625 10.4286C60.5625 7.50893 58.2054 5.15178 55.2857 5.15178C52.3661 5.15178 50.0089 7.50893 50.0089 10.4286C50.0089 13.3482 52.3661 15.7054 55.2857 15.7054C58.2054 15.7054 60.5625 13.3482 60.5625 10.4286ZM62.0089 4.9375C62.0089 4.25446 61.4598 3.70536 60.7768 3.70536C60.0938 3.70536 59.5446 4.25446 59.5446 4.9375C59.5446 5.62053 60.0938 6.16964 60.7768 6.16964C61.4598 6.16964 62.0089 5.62053 62.0089 4.9375ZM55.2857 1.99107C56.7857 1.99107 60 1.87053 61.3527 2.40625C61.8214 2.59375 62.1696 2.82143 62.5313 3.18303C62.8929 3.54464 63.1205 3.89286 63.308 4.36161C63.8438 5.71428 63.7232 8.92857 63.7232 10.4286C63.7232 11.9286 63.8438 15.1429 63.308 16.4955C63.1205 16.9643 62.8929 17.3125 62.5313 17.6741C62.1696 18.0357 61.8214 18.2634 61.3527 18.4509C60 18.9866 56.7857 18.8661 55.2857 18.8661C53.7857 18.8661 50.5714 18.9866 49.2188 18.4509C48.75 18.2634 48.4018 18.0357 48.0402 17.6741C47.6786 17.3125 47.4509 16.9643 47.2634 16.4955C46.7277 15.1429 46.8482 11.9286 46.8482 10.4286C46.8482 8.92857 46.7277 5.71428 47.2634 4.36161C47.4509 3.89286 47.6786 3.54464 48.0402 3.18303C48.4018 2.82143 48.75 2.59375 49.2188 2.40625C50.5714 1.87053 53.7857 1.99107 55.2857 1.99107ZM65.5714 10.4286C65.5714 9.00893 65.5848 7.60268 65.5045 6.18303C65.4241 4.53571 65.0491 3.07589 63.8438 1.87053C62.6384 0.665177 61.1786 0.290177 59.5312 0.209821C58.1116 0.129464 56.7054 0.142856 55.2857 0.142856C53.8661 0.142856 52.4598 0.129464 51.0402 0.209821C49.3929 0.290177 47.933 0.665177 46.7277 1.87053C45.5223 3.07589 45.1473 4.53571 45.067 6.18303C44.9866 7.60268 45 9.00893 45 10.4286C45 11.8482 44.9866 13.2545 45.067 14.6741C45.1473 16.3214 45.5223 17.7812 46.7277 18.9866C47.933 20.192 49.3929 20.567 51.0402 20.6473C52.4598 20.7277 53.8661 20.7143 55.2857 20.7143C56.7054 20.7143 58.1116 20.7277 59.5312 20.6473C61.1786 20.567 62.6384 20.192 63.8438 18.9866C65.0491 17.7812 65.4241 16.3214 65.5045 14.6741C65.5848 13.2545 65.5714 11.8482 65.5714 10.4286ZM110.578 2.64062L107.391 17.5469C107.141 18.6094 106.562 18.8906 105.656 18.3906L100.828 14.8281L98.4844 17.0781C98.1719 17.3906 97.8438 17.5469 97.5 17.5469L97.875 12.625L106.828 4.5625C107.047 4.34375 107.047 4.21875 106.828 4.1875C106.641 4.125 106.438 4.17188 106.219 4.32812L95.1562 11.3125L90.375 9.8125C89.8438 9.65625 89.5938 9.42188 89.625 9.10938C89.6562 8.79688 89.9844 8.53125 90.6094 8.3125L109.219 1.09375C109.688 0.9375 110.062 1 110.344 1.28125C110.625 1.53125 110.703 1.98438 110.578 2.64062Z" fill="white"/>
</svg>
