<?xml version="1.0" encoding="utf-8"?><svg viewBox="0 0 496 512" xmlns="http://www.w3.org/2000/svg" xmlns:xlink="http://www.w3.org/1999/xlink"><style>:root>svg{display:none}:root>svg:target{display:block}</style><svg fill="none" viewBox="0 0 25 20" id="email" xmlns="http://www.w3.org/2000/svg"><path d="M24.392 6.938c-.401.441-.857.83-1.339 1.165-2.237 1.513-4.487 3.04-6.67 4.62-1.125.83-2.517 1.848-3.977 1.848h-.027c-1.46 0-2.853-1.017-3.978-1.848-2.183-1.594-4.433-3.107-6.656-4.62A7.49 7.49 0 01.392 6.938V17.57a2.15 2.15 0 002.143 2.143H22.25a2.15 2.15 0 002.143-2.143V6.937zm0-3.938A2.158 2.158 0 0022.25.857H2.535C1.102.857.392 1.982.392 3.295c0 1.218 1.353 2.732 2.304 3.375 2.076 1.446 4.178 2.893 6.254 4.352.87.603 2.344 1.835 3.429 1.835h.027c1.085 0 2.558-1.232 3.428-1.835 2.076-1.46 4.179-2.906 6.268-4.352 1.179-.817 2.29-2.17 2.29-3.67z" fill="#E24040"/></svg><svg viewBox="0 0 448 512" id="facebook-square-brands" xmlns="http://www.w3.org/2000/svg"><!--! Font Awesome Pro 6.1.1 by @fontawesome - https://fontawesome.com License - https://fontawesome.com/license (Commercial License) Copyright 2022 Fonticons, Inc.--><path d="M400 32H48A48 48 0 000 80v352a48 48 0 0048 48h137.25V327.69h-63V256h63v-54.64c0-62.15 37-96.48 93.67-96.48 27.14 0 55.52 4.84 55.52 4.84v61h-31.27c-30.81 0-40.42 19.12-40.42 38.73V256h68.78l-11 71.69h-57.78V480H400a48 48 0 0048-48V80a48 48 0 00-48-48z"/></svg><svg viewBox="0 0 448 512" id="instagram-brands" xmlns="http://www.w3.org/2000/svg"><!--! Font Awesome Pro 6.1.1 by @fontawesome - https://fontawesome.com License - https://fontawesome.com/license (Commercial License) Copyright 2022 Fonticons, Inc.--><path d="M224.1 141c-63.6 0-114.9 51.3-114.9 114.9s51.3 114.9 114.9 114.9S339 319.5 339 255.9 287.7 141 224.1 141zm0 189.6c-41.1 0-74.7-33.5-74.7-74.7s33.5-74.7 74.7-74.7 74.7 33.5 74.7 74.7-33.6 74.7-74.7 74.7zm146.4-194.3c0 14.9-12 26.8-26.8 26.8-14.9 0-26.8-12-26.8-26.8s12-26.8 26.8-26.8 26.8 12 26.8 26.8zm76.1 27.2c-1.7-35.9-9.9-67.7-36.2-93.9-26.2-26.2-58-34.4-93.9-36.2-37-2.1-147.9-2.1-184.9 0-35.8 1.7-67.6 9.9-93.9 36.1s-34.4 58-36.2 93.9c-2.1 37-2.1 147.9 0 184.9 1.7 35.9 9.9 67.7 36.2 93.9s58 34.4 93.9 36.2c37 2.1 147.9 2.1 184.9 0 35.9-1.7 67.7-9.9 93.9-36.2 26.2-26.2 34.4-58 36.2-93.9 2.1-37 2.1-147.8 0-184.8zM398.8 388c-7.8 19.6-22.9 34.7-42.6 42.6-29.5 11.7-99.5 9-132.1 9s-102.7 2.6-132.1-9c-19.6-7.8-34.7-22.9-42.6-42.6-11.7-29.5-9-99.5-9-132.1s-2.6-102.7 9-132.1c7.8-19.6 22.9-34.7 42.6-42.6 29.5-11.7 99.5-9 132.1-9s102.7-2.6 132.1 9c19.6 7.8 34.7 22.9 42.6 42.6 11.7 29.5 9 99.5 9 132.1s2.7 102.7-9 132.1z"/></svg><svg fill="none" viewBox="0 0 25 20" id="message" xmlns="http://www.w3.org/2000/svg"><path d="M19.25 7.714c0-3.79-4.22-6.857-9.43-6.857C4.612.857.393 3.924.393 7.714c0 2.17 1.393 4.112 3.563 5.37-.456 1.112-1.045 1.635-1.567 2.224-.148.174-.322.335-.268.59.04.227.228.388.429.388h.04c.401-.054.79-.12 1.151-.215a11.243 11.243 0 003.724-1.714c.75.134 1.54.214 2.357.214 5.21 0 9.428-3.066 9.428-6.857zm5.142 3.429c0-2.237-1.473-4.219-3.736-5.464.2.656.308 1.339.308 2.035 0 2.398-1.232 4.607-3.469 6.241-2.076 1.5-4.795 2.33-7.674 2.33-.389 0-.79-.026-1.179-.053C10.316 17.33 12.54 18 14.964 18c.817 0 1.607-.08 2.357-.214 1.111.79 2.37 1.366 3.723 1.714.362.094.75.16 1.152.214.214.027.415-.147.469-.388.053-.255-.12-.415-.268-.59-.523-.589-1.112-1.111-1.567-2.223 2.17-1.259 3.562-3.187 3.562-5.37z" fill="#E24040"/></svg><svg fill="none" viewBox="0 0 18 21" id="name" xmlns="http://www.w3.org/2000/svg"><path d="M17.534 17.165c0-3.522-.87-7.594-4.38-7.594a5.98 5.98 0 01-8.383 0c-3.51 0-4.38 4.072-4.38 7.594 0 1.956 1.286 3.55 2.853 3.55h11.438c1.566 0 2.852-1.595 2.852-3.55zm-3.428-11.88A5.144 5.144 0 008.963.144 5.144 5.144 0 003.82 5.286a5.144 5.144 0 005.143 5.143 5.144 5.144 0 005.143-5.143z" fill="#E24040"/></svg><svg fill="none" viewBox="0 0 20 19" id="phone" xmlns="http://www.w3.org/2000/svg"><path d="M19.25 15.036c0-.094 0-.188-.04-.281-.095-.282-.75-.576-1.019-.71-.763-.429-1.54-.844-2.29-1.286-.348-.214-.777-.616-1.192-.616-.817 0-2.009 2.424-2.732 2.424-.361 0-.83-.335-1.152-.522-2.437-1.353-4.125-3.04-5.477-5.478-.188-.321-.523-.79-.523-1.152 0-.723 2.424-1.915 2.424-2.732 0-.415-.401-.844-.616-1.192-.442-.75-.857-1.527-1.285-2.29-.134-.268-.429-.924-.71-1.018-.094-.04-.188-.04-.281-.04-.483 0-1.42.214-1.862.415-.656.281-1.085 1.031-1.42 1.634-.428.79-.683 1.594-.683 2.491 0 1.246.51 2.37.924 3.509.295.817.657 1.607 1.112 2.344 1.406 2.277 4.152 5.022 6.429 6.428.736.456 1.526.817 2.343 1.112 1.139.415 2.264.924 3.51.924.897 0 1.7-.255 2.49-.683.603-.335 1.353-.763 1.634-1.42.201-.442.415-1.38.415-1.861z" fill="#E24040"/></svg><svg viewBox="0 0 496 512" id="telegram" xmlns="http://www.w3.org/2000/svg"><!--! Font Awesome Free 6.1.1 by @fontawesome - https://fontawesome.com License - https://fontawesome.com/license/free (Icons: CC BY 4.0, Fonts: SIL OFL 1.1, Code: MIT License) Copyright 2022 Fonticons, Inc.--><path d="M248 8C111.033 8 0 119.033 0 256s111.033 248 248 248 248-111.033 248-248S384.967 8 248 8zm114.952 168.66c-3.732 39.215-19.881 134.378-28.1 178.3-3.476 18.584-10.322 24.816-16.948 25.425-14.4 1.326-25.338-9.517-39.287-18.661-21.827-14.308-34.158-23.215-55.346-37.177-24.485-16.135-8.612-25 5.342-39.5 3.652-3.793 67.107-61.51 68.335-66.746.153-.655.3-3.1-1.154-4.384s-3.59-.849-5.135-.5q-3.283.746-104.608 69.142-14.845 10.194-26.894 9.934c-8.855-.191-25.888-5.006-38.551-9.123-15.531-5.048-27.875-7.717-26.8-16.291q.84-6.7 18.45-13.7 108.446-47.248 144.628-62.3c68.872-28.647 83.183-33.623 92.511-33.789 2.052-.034 6.639.474 9.61 2.885a10.452 10.452 0 013.53 6.716 43.765 43.765 0 01.417 9.769z"/></svg></svg>